<?xml version="1.0" encoding="UTF-8"?>
<svg version="1.1" xmlns="http://www.w3.org/2000/svg" width="512" height="512">
<path d="M0 0 C168.96 0 337.92 0 512 0 C512 168.96 512 337.92 512 512 C343.04 512 174.08 512 0 512 C0 343.04 0 174.08 0 0 Z M112 75 C111.45118164 75.4345752 110.90236328 75.86915039 110.33691406 76.31689453 C96.09546577 87.64355277 82.97876044 100.6463718 72.22216797 115.33789062 C71.02538418 116.96547833 69.79615858 118.56905174 68.56640625 120.171875 C33.18043999 166.96809676 19.04216459 229.03016257 26.51928711 286.79614258 C32.55884643 328.4186888 48.57130951 367.1762415 75 400 C75.65186279 400.82322754 75.65186279 400.82322754 76.31689453 401.66308594 C87.64355277 415.90453423 100.6463718 429.02123956 115.33789062 439.77783203 C116.96547833 440.97461582 118.56905174 442.20384142 120.171875 443.43359375 C166.96809676 478.81956001 229.03016257 492.95783541 286.79614258 485.48071289 C328.4186888 479.44115357 367.1762415 463.42869049 400 437 C400.54881836 436.5654248 401.09763672 436.13084961 401.66308594 435.68310547 C415.90453423 424.35644723 429.02123956 411.3536282 439.77783203 396.66210938 C440.97461582 395.03452167 442.20384142 393.43094826 443.43359375 391.828125 C478.81956001 345.03190324 492.95783541 282.96983743 485.48071289 225.20385742 C479.44115357 183.5813112 463.42869049 144.8237585 437 112 C436.34813721 111.17677246 436.34813721 111.17677246 435.68310547 110.33691406 C424.35644723 96.09546577 411.3536282 82.97876044 396.66210938 72.22216797 C395.03452167 71.02538418 393.43094826 69.79615858 391.828125 68.56640625 C312.9480061 8.91951337 195.49773019 10.55871767 112 75 Z " fill="#A50062" transform="translate(0,0)"/>
<path d="M0 0 C168.96 0 337.92 0 512 0 C512 33.99 512 67.98 512 103 C498.7175 103.4125 485.435 103.825 471.75 104.25 C467.59889648 104.43208008 463.44779297 104.61416016 459.17089844 104.80175781 C429.56993415 105.55264869 429.56993415 105.55264869 419.28936768 96.05511475 C416.19303242 92.64903259 413.42562171 89.11599823 410.78157043 85.35046387 C408.17951017 81.91751027 405.07972227 79.40754264 401.625 76.875 C400.73585655 76.20937546 400.73585655 76.20937546 399.82875061 75.53030396 C398.76248054 74.73751038 397.69060915 73.95220461 396.61376953 73.17382812 C395.00269658 72.00196144 393.42107991 70.78994999 391.83984375 69.578125 C345.06368245 34.17116957 282.95945254 20.04350879 225.20385742 27.51928711 C183.58952405 33.55765473 144.81181639 49.5649741 112 76 C111.16879639 76.65983887 111.16879639 76.65983887 110.32080078 77.33300781 C108.70177641 78.62453999 107.10076763 79.93592816 105.5 81.25 C104.480271 82.08160645 103.46054199 82.91321289 102.40991211 83.77001953 C99.8834265 85.98714818 98.14024539 88.18276207 96.359375 91.02636719 C92.4401999 96.74044617 87.9713909 101.79711144 80.97158813 103.49079895 C67.74347581 105.61266274 53.77301446 104.4617056 40.5 104 C27.135 103.67 13.77 103.34 0 103 C0 69.01 0 35.02 0 0 Z " fill="#D62900" transform="translate(0,0)"/>
<path d="M0 0 C27.06 0 54.12 0 82 0 C82 101.31 82 202.62 82 307 C54.61 307 27.22 307 -1 307 C1.15630026 303.40616623 3.20435357 300.46110669 5.87011719 297.29516602 C17.79689324 283.06778375 27.33306875 266.88257455 35 250 C35.50007568 248.90703613 35.50007568 248.90703613 36.01025391 247.79199219 C60.55468902 193.54314686 63.1367706 130.24757441 42.80419922 74.18969727 C33.0334121 48.3204501 19.68636775 24.10276335 1.11694336 3.47827148 C0 2 0 2 0 0 Z " fill="#FF9B55" transform="translate(430,103)"/>
<path d="M0 0 C27.06 0 54.12 0 82 0 C80.32173674 3.35652653 78.60914996 5.77996107 76.21777344 8.61694336 C64.24427261 22.86174165 54.68468996 39.07832079 47 56 C46.66661621 56.72864258 46.33323242 57.45728516 45.98974609 58.20800781 C21.44531098 112.45685314 18.8632294 175.75242559 39.19580078 231.81030273 C48.16370644 255.55383181 60.21519414 277.11185617 76 297 C77.41766084 298.8117225 78.83450992 300.62408098 80.25 302.4375 C80.79140625 303.11683594 81.3328125 303.79617188 81.890625 304.49609375 C83 306 83 306 83 307 C55.61 307 28.22 307 0 307 C0 205.69 0 104.38 0 0 Z " fill="#FF9B55" transform="translate(0,103)"/>
<path d="M0 0 C10.23 0 20.46 0 31 0 C31 33.66 31 67.32 31 102 C3.61 102 -23.78 102 -52 102 C-49.84369974 98.40616623 -47.79564643 95.46110669 -45.12988281 92.29516602 C-33.20310676 78.06778375 -23.66693125 61.88257455 -16 45 C-15.66661621 44.27135742 -15.33323242 43.54271484 -14.98974609 42.79199219 C-9.89327968 31.52762953 -5.95146124 20.12594727 -2.65087891 8.21557617 C-1.83980309 5.45469356 -0.90996246 2.72988738 0 0 Z " fill="#D461A6" transform="translate(481,308)"/>
<path d="M0 0 C10.23 0 20.46 0 31 0 C32.258125 4.269375 33.51625 8.53875 34.8125 12.9375 C43.71062201 42.01860614 57.07777211 68.15884585 76 92 C77.41766084 93.8117225 78.83450992 95.62408098 80.25 97.4375 C80.79140625 98.11683594 81.3328125 98.79617188 81.890625 99.49609375 C83 101 83 101 83 102 C55.61 102 28.22 102 0 102 C0 68.34 0 34.68 0 0 Z " fill="#D461A6" transform="translate(0,308)"/>
<path d="M0 0 C10.23 0 20.46 0 31 0 C31 33.99 31 67.98 31 103 C20.77 103 10.54 103 0 103 C1.9375 90.6875 1.9375 90.6875 2.54272461 86.87768555 C7.0942445 57.61267377 5.27918302 29.03550663 0 0 Z " fill="#FFFFFF" transform="translate(481,205)"/>
<path d="M0 0 C10.23 0 20.46 0 31 0 C29.0625 11.8125 29.0625 11.8125 28.45727539 15.46411133 C23.67804579 44.97976656 26.11291555 73.67749331 31 103 C20.77 103 10.54 103 0 103 C0 69.01 0 35.02 0 0 Z " fill="#FFFFFF" transform="translate(0,205)"/>
</svg>
